<svg xmlns="http://www.w3.org/2000/svg" xmlns:xlink="http://www.w3.org/1999/xlink" aria-hidden="true" role="img" class="iconify iconify--logos" width="31.88" height="32" preserveAspectRatio="xMidYMid meet" viewBox="0 0 256 257"><defs><linearGradient id="IconifyId1813088fe1fbc01fb466" x1="128" x2="128" y1="256.5" y2=".5" gradientUnits="userSpaceOnUse"><stop offset="0" stop-color="#41d1ff"/><stop offset="1" stop-color="#bd34fe"/></linearGradient><linearGradient id="IconifyId1813088fe1fbc01fb467" x1="128" x2="128" y1="210.63" y2="46.03" gradientUnits="userSpaceOnUse"><stop offset="0" stop-color="#ffea83"/><stop offset=".08" stop-color="#ffdd35"/><stop offset="1" stop-color="#ffa800"/></linearGradient></defs><path fill="url(#IconifyId1813088fe1fbc01fb466)" d="M256 .5H0v256h256V.5z"/><path fill="url(#IconifyId1813088fe1fbc01fb467)" d="M128 46.03c-21-2.4-38.3 1.5-50.5 19.3c-11.7 17-15.6 32.7-10.3 54.4c3.4 13.7 12.2 26.3 26.5 38.2c1.2.9 2 2.3 2 3.8v43.57a3.5 3.5 0 0 0 5.4 2.9c3.1-1.9 6.3-3.8 9.4-5.9c3-2 6-4 9.1-6.1c5-3.5 10.3-7.2 15.9-10.9c22-14.7 41.7-14.3 57-1.8c2.4 1.9 5.2 3.3 8 4.2c2.1.7 4.2 1.1 6.3 1.4c1.1.1 2.2.2 3.3.2c5.9 0 11.2-2.1 13.5-6.6a29.13 29.13 0 0 0-4.8-31.5c-4.3-5-9.3-9-15-11.7c-12.8-6.4-23.7-8.3-34-5.4c-6.6 1.8-13.2 4.9-19.4 9.4a22.33 22.33 0 0 1-19-15.3c-2.3-7.8.3-14.4 7.6-18.4c7.3-4 13.8-3.9 19.4-.5c1.5.9 3.2.3 4.1-1.2l12-20.8a2.53 2.53 0 0 0-.9-3.5c-5.8-3.4-11.8-5.3-17.9-5.7z"/><path fill="#34398c" d="m142.1 127.3l-14-24.3l-14 24.3l.3.4h27.4z"/></svg>